<svg xmlns="http://www.w3.org/2000/svg" viewBox="0 0 220 48" fill="none" role="img" aria-labelledby="title desc">
  <title id="title">Nexus</title>
  <desc id="desc">Nexus context engine logo and wordmark</desc>
  <g transform="translate(4 8)">
    <polygon points="16,3 27.5,9.5 27.5,22.5 16,29 4.5,22.5 4.5,9.5" fill="none" stroke="#12121A" stroke-width="1.4" stroke-linejoin="round"/>
    <polygon points="16,16 27.5,9.5 16,3" fill="#12121A" fill-opacity="0.16"/>
    <polygon points="16,16 27.5,22.5 27.5,9.5" fill="#12121A" fill-opacity="0.10"/>
    <polygon points="16,16 16,29 27.5,22.5" fill="#12121A" fill-opacity="0.06"/>
    <polygon points="16,16 4.5,22.5 16,29" fill="#12121A" fill-opacity="0.10"/>
    <polygon points="16,16 4.5,9.5 4.5,22.5" fill="#12121A" fill-opacity="0.16"/>
    <polygon points="16,16 16,3 4.5,9.5" fill="#7C8CFF"/>
    <g stroke="#12121A" stroke-width="0.4" stroke-opacity="0.4">
      <line x1="16" y1="16" x2="16" y2="3"/>
      <line x1="16" y1="16" x2="27.5" y2="9.5"/>
      <line x1="16" y1="16" x2="27.5" y2="22.5"/>
      <line x1="16" y1="16" x2="16" y2="29"/>
      <line x1="16" y1="16" x2="4.5" y2="22.5"/>
      <line x1="16" y1="16" x2="4.5" y2="9.5"/>
    </g>
  </g>
  <text x="48" y="30" font-family="Inter, ui-sans-serif, system-ui, sans-serif" font-size="18" font-weight="600" letter-spacing="4.8" fill="#12121A">NEXUS</text>
</svg>
